<svg width="24" height="25" viewBox="0 0 24 25" fill="none" xmlns="http://www.w3.org/2000/svg">
<path d="M13 9.62326H11V7.62326H13M13 17.6233H11V11.6233H13M12 2.62326C10.6868 2.62326 9.38642 2.88192 8.17317 3.38447C6.95991 3.88701 5.85752 4.62361 4.92893 5.55219C3.05357 7.42756 2 9.9711 2 12.6233C2 15.2754 3.05357 17.819 4.92893 19.6943C5.85752 20.6229 6.95991 21.3595 8.17317 21.8621C9.38642 22.3646 10.6868 22.6233 12 22.6233C14.6522 22.6233 17.1957 21.5697 19.0711 19.6943C20.9464 17.819 22 15.2754 22 12.6233C22 11.31 21.7413 10.0097 21.2388 8.79643C20.7362 7.58317 19.9997 6.48078 19.0711 5.55219C18.1425 4.62361 17.0401 3.88701 15.8268 3.38447C14.6136 2.88192 13.3132 2.62326 12 2.62326Z" fill="black"/>
</svg>
