<svg width="232" height="58" viewBox="0 0 232 58" fill="none" xmlns="http://www.w3.org/2000/svg">
<path d="M18.8036 41.582C19.0351 42.244 19.3164 42.9067 19.6489 43.5632C19.9805 44.2202 20.3588 44.8739 20.7902 45.5145C20.8983 45.6746 21.0105 45.8329 21.1266 45.99C21.234 46.1415 21.3805 46.3244 21.5048 46.4849L21.6577 46.6788L21.696 46.7273L21.7152 46.7516L21.7628 46.8058L21.8572 46.9163C21.9846 47.0631 22.1123 47.2104 22.2405 47.3581C23.2875 48.5215 24.5077 49.5887 25.8623 50.5078C26.541 50.964 27.2512 51.3875 27.9877 51.771C28.1486 51.853 28.3113 51.9325 28.4745 52.011C29.1356 51.8234 29.7866 51.6225 30.4236 51.4052L31.3476 51.0929L31.824 50.9162C31.9902 50.8548 32.1341 50.8013 32.2494 50.7537L32.4119 50.6887C32.6682 50.5866 32.9104 50.4899 33.1539 50.3842L33.1836 50.3717C33.4782 50.25 33.7814 50.1136 34.0651 49.9842C35.2905 49.426 36.4462 48.8122 37.5008 48.1591C37.7542 48.0034 38.0054 47.8416 38.2547 47.6746C36.2492 47.5114 34.3146 47.1204 32.5329 46.5169C30.2135 45.7355 28.1517 44.5916 26.5004 43.1376C26.3987 43.0451 26.2974 42.9529 26.1964 42.861L26.1198 42.7927C26.1242 42.7988 26.0829 42.7549 26.1248 42.8021L26.1027 42.7805L26.0587 42.737L25.8828 42.5638C25.7953 42.4741 25.7245 42.4128 25.6294 42.3093C25.538 42.2155 25.4506 42.1182 25.3623 42.0217C25.0086 41.6358 24.6821 41.2266 24.3826 40.803C23.7896 39.9525 23.2757 39.057 22.8865 38.1389C22.0796 36.3092 21.6862 34.4407 21.5831 32.7588C21.4733 31.0712 21.6737 29.5675 21.9833 28.3483C22.294 27.1265 22.7183 26.1902 23.041 25.5634C23.2025 25.2492 23.3403 25.0123 23.4329 24.8512C23.5282 24.6911 23.5773 24.6085 23.5773 24.6085L24.4533 23.2562L23.1138 24.1624C23.1138 24.1624 23.0308 24.2212 22.8702 24.335C22.7094 24.4501 22.4777 24.6294 22.1854 24.8815C21.6041 25.3852 20.7918 26.2064 19.9944 27.4605C19.1979 28.7088 18.45 30.4068 18.0531 32.4864C17.6573 34.5608 17.6273 37.0125 18.2243 39.6152C18.3748 40.2648 18.5693 40.9212 18.8036 41.582Z" fill="#FA1239"/>
<path d="M67.8086 19.5377C67.5846 18.4642 67.318 17.4614 67.0316 16.5331C66.7564 15.6454 66.4642 14.8276 66.1674 14.078L71.7059 15.2467L59.712 0L61.1741 20.4354L64.7137 14.5628C64.9065 15.3052 65.0877 16.1078 65.2399 16.9708C65.4012 17.875 65.531 18.8422 65.6182 19.8619C65.7078 20.8812 65.7541 21.9539 65.7327 23.0675C65.6978 25.2938 65.3844 27.6852 64.7084 30.0893C64.0261 32.4906 62.9587 34.8967 61.4741 37.1202L61.1919 37.5354L60.9012 37.9467L60.6002 38.3578C60.4869 38.518 60.3951 38.6264 60.2978 38.7502L60.1534 38.933L59.9954 39.1223C59.8874 39.2481 59.7856 39.3786 59.6728 39.5011L59.3397 39.8733L58.9942 40.2365C58.0563 41.1927 57.0211 42.0808 55.8887 42.8683C54.9122 43.5524 53.8714 44.1701 52.7827 44.7169C51.86 46.2371 50.8403 47.6231 49.7465 48.8369L49.5773 49.0218C49.3381 49.2836 49.0907 49.5543 48.7982 49.8414L48.3683 50.2713L47.6075 50.9715L46.8462 51.6239L46.8168 51.6471C46.7158 51.7264 46.6156 51.8068 46.5153 51.8874C46.29 52.0684 46.0569 52.2557 45.804 52.4402C45.2494 52.8558 44.6786 53.2522 44.0957 53.6298C44.1254 53.6232 44.1539 53.6175 44.184 53.6105L44.5188 53.5363C44.625 53.5118 44.7089 53.4879 44.805 53.4634L45.416 53.3031C46.2133 53.084 47.0056 52.8365 47.7922 52.5697C48.5793 52.304 49.3619 52.0204 50.134 51.7049C53.2177 50.449 56.2116 48.8565 58.8222 46.7619C60.1298 45.7235 61.3331 44.5591 62.3991 43.301L62.7924 42.8249L63.1706 42.3386C63.2977 42.1781 63.414 42.0088 63.5354 41.8447L63.7154 41.5948L63.8961 41.3302C64.0146 41.1553 64.1436 40.9695 64.2323 40.8229C64.337 40.6559 64.4415 40.4891 64.5458 40.3227C64.7478 39.9823 64.9433 39.6403 65.1297 39.2951C65.8706 37.9117 66.4825 36.4939 66.9668 35.074C67.4492 33.6529 67.8 32.2296 68.0422 30.8352C68.2867 29.4408 68.4114 28.0729 68.4472 26.755C68.4845 25.4369 68.4348 24.1681 68.3191 22.9619C68.2064 21.7559 68.0266 20.6119 67.8086 19.5377Z" fill="#FA1239"/>
<path d="M54.2212 33.9399C54.2686 33.602 54.2115 33.2649 54.2046 32.9285C54.1857 32.7105 54.1466 32.4929 54.1279 32.2756C54.1089 32.0582 54.0884 31.841 54.0651 31.6245C54.0372 31.4091 53.9959 31.1969 53.9611 30.9834C53.924 30.7703 53.887 30.5576 53.85 30.3453C53.8159 30.132 53.7507 29.9278 53.7018 29.7193C53.5922 29.306 53.5006 28.8875 53.3556 28.4896C53.0946 27.6828 52.7771 26.905 52.4163 26.1578C52.2244 25.79 52.0399 25.4206 51.8397 25.0628C51.6222 24.715 51.4058 24.3691 51.1906 24.0249C50.2823 22.679 49.2144 21.488 48.0497 20.4721C46.8854 19.4566 45.625 18.6088 44.3087 17.9796L44.0655 17.8582L44.0048 17.8282L43.8763 17.7626L43.8499 17.7522L43.7444 17.7106C43.6039 17.6553 43.4638 17.6001 43.3244 17.5452C43.1851 17.4904 43.0463 17.4358 42.9083 17.3814L42.8026 17.3403L42.6686 17.2941L42.4014 17.2032C42.2239 17.1442 42.0472 17.0855 41.8714 17.0271C41.6977 16.9731 41.5169 16.9054 41.3516 16.8677C41.0228 16.7923 40.6972 16.7177 40.3751 16.6438C39.0832 16.3917 37.8377 16.2649 36.6642 16.3014C36.5182 16.3029 36.3729 16.3041 36.2286 16.3054C36.0847 16.3168 35.9417 16.3279 35.7996 16.339C35.5175 16.363 35.2393 16.3866 34.9649 16.4099C34.42 16.4913 33.8936 16.5558 33.3934 16.6758C31.3853 17.1089 29.7639 17.842 28.5416 18.5749C28.3899 18.6681 28.2422 18.7588 28.0987 18.847C28.0277 18.8912 27.9577 18.9348 27.8887 18.9776C27.8225 19.0259 27.7572 19.0737 27.693 19.1205C27.4401 19.3077 27.2031 19.4832 26.9826 19.6465C26.5608 19.9987 26.218 20.3085 25.9492 20.5648C25.4329 21.1105 25.1801 21.4052 25.1801 21.4052L24.3858 22.4142L25.5693 21.9174C25.5693 21.9174 25.932 21.7812 26.5694 21.5186C26.7304 21.4558 26.9198 21.4027 27.1186 21.3331C27.3202 21.2681 27.5315 21.1855 27.7702 21.12C28.0071 21.0564 28.2616 20.988 28.5333 20.915C28.6003 20.8971 28.6684 20.879 28.7375 20.8605C28.8083 20.8464 28.8801 20.8319 28.953 20.8173C29.0973 20.7878 29.2457 20.7574 29.3982 20.7262C30.6145 20.4885 32.096 20.3418 33.7377 20.4298C33.942 20.4309 34.1506 20.4615 34.3602 20.4835C34.5697 20.5046 34.7813 20.521 34.9946 20.5454C35.2065 20.5807 35.4215 20.6165 35.6394 20.6529C35.7473 20.6708 35.8561 20.6889 35.9655 20.707C36.0736 20.732 36.1825 20.7571 36.292 20.7824C36.5104 20.8325 36.731 20.8776 36.9518 20.9307C37.1691 20.9958 37.3891 21.0617 37.6116 21.1284C37.8346 21.1875 38.0519 21.2725 38.2719 21.3518C38.3817 21.3913 38.492 21.4309 38.6029 21.4708L38.7691 21.53L38.931 21.6033C39.1461 21.6992 39.3634 21.7962 39.5829 21.894C39.7849 21.9959 39.9617 22.0981 40.1541 22.1952L40.2961 22.2679L40.3674 22.3039L40.4612 22.3593C40.5886 22.4354 40.7167 22.5118 40.8452 22.5886C40.9738 22.6652 41.1029 22.7424 41.2326 22.8199L41.33 22.8781L41.3544 22.8927C41.1644 22.7961 41.3124 22.8739 41.2747 22.8558L41.3115 22.8835L41.4595 22.9938C42.2712 23.5399 43.0277 24.2266 43.7281 24.9935C44.4281 25.7622 45.0648 26.6266 45.6193 27.5649C46.1702 28.5058 46.6329 29.5218 46.9884 30.5853C47.0944 30.8467 47.1563 31.1204 47.238 31.3906C47.325 31.6603 47.3806 31.936 47.4436 32.2123C47.4737 32.3504 47.5115 32.4884 47.5372 32.6276C47.5566 32.7676 47.579 32.9073 47.6029 33.0474L47.6756 33.4692L47.7105 33.8344L47.7595 34.2022C47.7612 34.2193 47.765 34.2294 47.7652 34.2521L47.7662 34.3203L47.7681 34.457L47.7719 34.7305L47.7823 35.2786L47.7838 35.3473L47.7847 35.3816C47.7968 35.1468 47.7874 35.3322 47.7898 35.287L47.786 35.3968L47.7788 35.6168C47.7717 36.2057 47.6916 36.8002 47.6055 37.4017C47.3994 38.6008 47.0378 39.8153 46.5116 40.9901C46.2421 41.5743 45.9558 42.1598 45.6074 42.7155C45.4477 43.002 45.2544 43.269 45.0754 43.5455C44.9838 43.6827 44.8824 43.8132 44.7866 43.9478C44.6879 44.0803 44.5966 44.2187 44.4906 44.3462C44.2841 44.6035 44.0762 44.8746 43.8751 45.0994L43.7235 45.2768L43.6479 45.3658L43.6097 45.4107L43.5613 45.4618L43.1741 45.8711L43.0774 45.9733L43.029 46.0244L43.0049 46.05C43.0689 45.9884 43.0097 46.0456 43.0182 46.0375L42.8384 46.2143L42.4793 46.5689C42.2278 46.7939 41.9872 47.0305 41.727 47.2476C40.7008 48.1303 39.5982 48.9428 38.43 49.6612C37.2643 50.3829 36.0449 51.0232 34.7973 51.5916C34.4855 51.7338 34.1733 51.874 33.8571 52.0046C33.5403 52.1422 33.232 52.263 32.9234 52.3865C32.7743 52.4481 32.6062 52.5104 32.4375 52.5725C32.2703 52.6346 32.1034 52.6965 31.9369 52.7584C31.6209 52.8651 31.3063 52.9716 30.993 53.0775C28.4383 53.9486 25.871 54.5349 23.4004 54.9089C20.9284 55.2811 18.5504 55.4203 16.3514 55.4016C16.0762 55.3974 15.804 55.3932 15.5347 55.3891C15.3998 55.3871 15.2658 55.3851 15.1324 55.3831C14.9994 55.3762 14.8672 55.3692 14.7356 55.3623C14.2083 55.3342 13.6932 55.3069 13.191 55.2801C12.1912 55.1799 11.2347 55.1083 10.3464 54.9656C8.56 54.7302 7.02218 54.3843 5.7541 54.0947C4.50217 53.7734 3.51951 53.5017 2.84536 53.2738C2.17251 53.0608 1.81371 52.9471 1.81371 52.9471L0 52.3483L1.5813 53.547C1.5813 53.547 1.92302 53.7047 2.56383 54.0005C3.19322 54.3082 4.16762 54.702 5.41815 55.1865C5.73266 55.2975 6.06414 55.4143 6.41164 55.5369C6.76008 55.6583 7.12254 55.795 7.50997 55.904C7.89622 56.0196 8.29826 56.1398 8.71526 56.2646C8.81974 56.2957 8.92517 56.327 9.03154 56.3587C9.13897 56.3859 9.24734 56.4132 9.35654 56.4409C9.57541 56.4962 9.79792 56.5525 10.0241 56.6096C10.9264 56.856 11.9033 57.0384 12.9331 57.2546C13.452 57.3392 13.9843 57.4259 14.5291 57.5147C14.6656 57.5365 14.8031 57.5584 14.9411 57.5803C15.0799 57.5962 15.2195 57.6123 15.3598 57.6284C15.6408 57.6606 15.925 57.6931 16.2121 57.7259C18.5113 57.9728 21.031 58.0754 23.6995 57.9395C26.3676 57.8077 29.1805 57.4158 32.0416 56.7306C32.2203 56.6869 32.3993 56.6432 32.5787 56.5993L32.8482 56.5333L32.9832 56.5002L33.0507 56.4836C33.0704 56.478 33.0544 56.4841 33.1035 56.4691L33.1356 56.4601C33.3067 56.4125 33.4782 56.3649 33.6501 56.3172C33.8208 56.2703 33.9924 56.2229 34.1802 56.1643C34.5473 56.0534 34.9185 55.9423 35.2746 55.8225C35.6357 55.7077 35.9955 55.5818 36.356 55.4532C37.8003 54.9441 39.235 54.3175 40.6471 53.5884C42.0606 52.8624 43.4396 52.0045 44.7525 51.0196C45.0841 50.7785 45.3999 50.5124 45.7244 50.2576L46.1961 49.8539L46.4319 49.6513L46.6783 49.4244L47.0928 49.0428L47.1447 48.9951L47.2029 48.9373L47.3196 48.8207L47.5528 48.5867C47.8745 48.2716 48.147 47.9648 48.4325 47.6543C49.5588 46.4045 50.5499 45.022 51.4226 43.5514C51.8463 42.8083 52.2442 42.0454 52.5825 41.2495C52.938 40.4618 53.2187 39.6364 53.4756 38.8028C53.7065 37.9605 53.9092 37.1057 54.0254 36.2328L54.0721 35.9061L54.0955 35.7427L54.1168 35.4772L54.1625 34.9308L54.1859 34.6581L54.2015 34.5219L54.2169 34.4538C54.2188 34.4299 54.2409 34.392 54.2385 34.3629C54.2334 34.2204 54.2274 34.0824 54.2212 33.9399Z" fill="#FA1239"/>
<path d="M100.792 28.3054C99.6854 28.8587 97.4725 29.4118 94.6371 29.4118C88.0669 29.4118 83.1219 25.2623 83.1219 17.6203C83.1219 10.324 88.0669 5.37903 95.294 5.37903C98.1987 5.37903 100.032 6.00136 100.827 6.41625L100.101 8.87142C98.9595 8.31808 97.3341 7.90296 95.3978 7.90296C89.9341 7.90296 86.3033 11.3956 86.3033 17.516C86.3033 23.2215 89.5882 26.887 95.2594 26.887C97.0922 26.887 98.9595 26.5067 100.17 25.9187L100.792 28.3054Z" fill="black"/>
<path d="M123.753 17.1708C123.753 25.1933 118.877 29.4464 112.929 29.4464C106.774 29.4464 102.452 24.6745 102.452 17.6205C102.452 10.2204 107.051 5.37924 113.275 5.37924C119.638 5.37924 123.753 10.255 123.753 17.1708ZM105.668 17.5513C105.668 22.5306 108.365 26.9915 113.102 26.9915C117.874 26.9915 120.571 22.5999 120.571 17.3092C120.571 12.6755 118.151 7.83442 113.137 7.83442C108.157 7.83442 105.668 12.4335 105.668 17.5513Z" fill="black"/>
<path d="M147.302 18.8308C147.129 15.5805 146.921 11.673 146.956 8.76829H146.852C146.057 11.5001 145.089 14.4048 143.913 17.6208L139.798 28.9282H137.516L133.747 17.8282C132.64 14.543 131.706 11.5347 131.049 8.76851H130.98C130.911 11.6732 130.738 15.5807 130.531 19.0733L129.909 29.0666H127.039L128.664 5.75999H132.502L136.479 17.033C137.447 19.9029 138.242 22.4619 138.83 24.8827H138.934C139.522 22.5311 140.352 19.9723 141.389 17.033L145.539 5.75999H149.377L150.829 29.0666H147.89L147.302 18.8308Z" fill="black"/>
<path d="M155.462 6.0362C156.915 5.79438 158.816 5.5867 161.237 5.5867C164.211 5.5867 166.389 6.27825 167.772 7.52314C169.052 8.62959 169.813 10.3242 169.813 12.3989C169.813 14.5084 169.19 16.168 168.014 17.3785C166.424 19.0729 163.83 19.9373 160.891 19.9373C159.992 19.9373 159.162 19.9026 158.47 19.7296V29.0662H155.462L155.462 6.0362ZM158.471 17.2744C159.128 17.4475 159.958 17.5164 160.961 17.5164C164.591 17.5164 166.805 15.7531 166.805 12.5371C166.805 9.4596 164.626 7.97242 161.306 7.97242C159.992 7.97242 158.99 8.07601 158.471 8.21447V17.2744Z" fill="black"/>
<path d="M174.723 21.7355L172.303 29.0664H169.19L177.109 5.75975H180.74L188.693 29.0664H185.477L182.987 21.7355H174.723ZM182.365 19.3839L180.083 12.6753C179.564 11.154 179.219 9.77063 178.873 8.4219H178.804C178.458 9.80525 178.078 11.223 177.628 12.6407L175.346 19.3837H182.365V19.3839Z" fill="black"/>
<path d="M192.117 29.0662V5.75951H195.402L202.871 17.5513C204.601 20.2831 205.949 22.7383 207.056 25.1243L207.125 25.0897C206.848 21.9775 206.779 19.1418 206.779 15.5112V5.75975H209.614V29.0664H206.572L199.171 17.2402C197.546 14.6468 195.99 11.984 194.814 9.45982L194.711 9.49419C194.883 12.4335 194.953 15.2346 194.953 19.1072V29.0662H192.117Z" fill="black"/>
<path d="M219.816 29.0662V19.1765L212.45 5.75951H215.874L219.159 12.1914C220.058 13.9548 220.75 15.3728 221.476 16.9979H221.545C222.202 15.4764 222.997 13.9548 223.896 12.1914L227.251 5.75951H230.674L222.859 19.1418V29.0662H219.816Z" fill="black"/>
<path d="M82.7058 48.7113C82.7531 47.9082 82.8003 46.9162 82.8003 46.066V31.9407H83.9105V39.4758H83.9577C84.7136 38.0113 86.107 37.1137 88.1148 37.1137C90.9729 37.1137 92.9571 39.4992 92.9571 42.9244C92.9571 46.9636 90.3824 48.9712 87.9024 48.9712C86.0836 48.9712 84.7372 48.2389 83.8396 46.6563H83.7924L83.7215 48.7113H82.7058ZM83.9105 44.3417C83.9105 44.6015 83.9577 44.885 84.005 45.1684C84.501 46.8928 85.9655 48.0266 87.7371 48.0266C90.3354 48.0266 91.8235 45.9007 91.8235 42.9481C91.8235 40.35 90.4063 38.0349 87.8316 38.0349C86.1781 38.0349 84.5955 39.1923 84.0522 41.082C83.9813 41.3654 83.9105 41.6723 83.9105 42.0739V44.3417Z" fill="black"/>
<path d="M104.555 45.9479C104.555 46.9398 104.602 47.8374 104.649 48.7113H103.61L103.539 46.7036H103.492C102.925 47.7429 101.626 48.9712 99.5944 48.9712C98.1535 48.9712 95.7441 48.2625 95.7441 43.9635V37.3735H96.8543V43.7509C96.8543 46.2075 97.6336 47.9791 99.8778 47.9791C101.531 47.9791 102.736 46.8217 103.208 45.6879C103.326 45.3335 103.445 44.8847 103.445 44.4359V37.3735H104.555V45.9479Z" fill="black"/>
<path d="M107.909 47.2232C108.523 47.6011 109.444 48.0027 110.46 48.0027C112.255 48.0027 113.105 47.0342 113.105 45.8534C113.105 44.6018 112.349 43.9401 110.719 43.2787C108.853 42.5701 107.838 41.5544 107.838 40.1846C107.838 38.5548 109.113 37.1139 111.333 37.1139C112.373 37.1139 113.247 37.421 113.837 37.8225L113.389 38.7435C113.011 38.4601 112.278 38.0585 111.145 38.0585C109.704 38.0585 108.948 38.9797 108.948 40.019C108.948 41.2001 109.751 41.7195 111.286 42.3575C113.129 43.0659 114.215 43.9874 114.215 45.7115C114.215 47.6484 112.704 48.9475 110.389 48.9475C109.278 48.9475 108.263 48.6405 107.507 48.168L107.909 47.2232Z" fill="black"/>
<path d="M118.656 34.1377C118.656 34.6573 118.302 35.1061 117.711 35.1061C117.191 35.1061 116.837 34.6573 116.837 34.1377C116.837 33.6178 117.239 33.1456 117.758 33.1456C118.302 33.1456 118.656 33.5944 118.656 34.1377ZM117.191 48.7113V37.3735H118.302V48.7113H117.191Z" fill="black"/>
<path d="M122.128 40.0899C122.128 39.0506 122.081 38.2713 122.034 37.3737H123.073L123.168 39.4285H123.215C123.829 38.153 125.246 37.1139 127.112 37.1139C128.199 37.1139 131.057 37.6572 131.057 41.9087V48.7116H129.947V42.0032C129.947 39.9482 129.144 38.0821 126.805 38.0821C125.199 38.0821 123.853 39.2159 123.404 40.6804C123.31 40.9639 123.239 41.3416 123.239 41.6961V48.7113H122.129V40.0899H122.128Z" fill="black"/>
<path d="M134.955 42.9244C134.955 46.5621 136.939 47.9791 139.277 47.9791C140.931 47.9791 141.781 47.6484 142.419 47.3413L142.702 48.2389C142.277 48.4751 141.12 48.9473 139.135 48.9473C135.876 48.9473 133.845 46.5852 133.845 43.2549C133.845 39.4755 136.018 37.1134 138.946 37.1134C142.655 37.1134 143.364 40.6091 143.364 42.239C143.364 42.546 143.364 42.735 143.316 42.9242H134.955V42.9244ZM142.182 42.0268C142.206 40.444 141.545 38.0349 138.805 38.0349C136.301 38.0349 135.214 40.2789 135.025 42.0268H142.182Z" fill="black"/>
<path d="M145.773 47.2232C146.387 47.6011 147.308 48.0027 148.324 48.0027C150.119 48.0027 150.969 47.0342 150.969 45.8534C150.969 44.6018 150.213 43.9401 148.583 43.2787C146.717 42.5701 145.702 41.5544 145.702 40.1846C145.702 38.5548 146.977 37.1139 149.198 37.1139C150.237 37.1139 151.111 37.421 151.701 37.8225L151.252 38.7435C150.874 38.4601 150.142 38.0585 149.008 38.0585C147.567 38.0585 146.812 38.9797 146.812 40.019C146.812 41.2001 147.615 41.7195 149.15 42.3575C150.993 43.0659 152.079 43.9874 152.079 45.7115C152.079 47.6484 150.567 48.9475 148.252 48.9475C147.142 48.9475 146.127 48.6405 145.371 48.168L145.773 47.2232Z" fill="black"/>
<path d="M154.583 47.2232C155.197 47.6011 156.118 48.0027 157.134 48.0027C158.929 48.0027 159.779 47.0342 159.779 45.8534C159.779 44.6018 159.023 43.9401 157.393 43.2787C155.527 42.5701 154.512 41.5544 154.512 40.1846C154.512 38.5548 155.787 37.1139 158.008 37.1139C159.047 37.1139 159.921 37.421 160.511 37.8225L160.063 38.7435C159.685 38.4601 158.952 38.0585 157.819 38.0585C156.378 38.0585 155.622 38.9797 155.622 40.019C155.622 41.2001 156.425 41.7195 157.96 42.3575C159.803 43.0659 160.889 43.9874 160.889 45.7115C160.889 47.6484 159.378 48.9475 157.063 48.9475C155.953 48.9475 154.937 48.6405 154.181 48.168L154.583 47.2232Z" fill="black"/>
<path d="M170.597 34.0904V37.3737H173.833V38.2713H170.597V45.6409C170.597 47.0817 171.046 48.0029 172.251 48.0029C172.841 48.0029 173.267 47.9087 173.55 47.814L173.691 48.688C173.314 48.8294 172.794 48.9475 172.109 48.9475C171.282 48.9475 170.597 48.6879 170.172 48.1444C169.652 47.5539 169.464 46.6091 169.464 45.4516V38.2711H167.55V37.3735H169.464V34.4445L170.597 34.0904Z" fill="black"/>
<path d="M182.526 48.7113L182.36 47.0815H182.289C181.746 47.9552 180.494 48.9712 178.676 48.9712C176.408 48.9712 175.345 47.3649 175.345 45.8532C175.345 43.2313 177.66 41.6489 182.266 41.6961V41.4127C182.266 40.2786 182.053 38.0349 179.361 38.0585C178.368 38.0585 177.329 38.3181 176.526 38.9088L176.172 38.0821C177.187 37.3971 178.463 37.1137 179.479 37.1137C182.762 37.1137 183.376 39.5702 183.376 41.6014V46.0185C183.376 46.9161 183.423 47.8371 183.541 48.7113H182.526ZM182.266 42.641C179.786 42.5699 176.526 42.948 176.526 45.6644C176.526 47.2943 177.613 48.0265 178.793 48.0265C180.683 48.0265 181.746 46.8691 182.148 45.7589C182.218 45.5227 182.266 45.2867 182.266 45.0739V42.641Z" fill="black"/>
<path d="M196.178 37.3737C196.131 38.2241 196.084 39.1217 196.084 40.3025V47.0578C196.084 49.9632 195.494 51.4041 194.549 52.3017C193.51 53.2938 191.974 53.6481 190.699 53.6481C189.399 53.6481 187.959 53.3174 187.108 52.6796L187.51 51.7582C188.289 52.2781 189.399 52.703 190.864 52.703C193.25 52.703 194.974 51.4747 194.974 48.1206V46.5146H194.927C194.336 47.6718 193.013 48.7113 190.982 48.7113C188.124 48.7113 186.116 46.2313 186.116 43.1368C186.116 39.1923 188.714 37.1137 191.218 37.1137C193.462 37.1137 194.572 38.342 195.045 39.2868H195.092L195.139 37.3735H196.178V37.3737ZM194.974 41.7198C194.974 41.3182 194.927 40.9641 194.832 40.6332C194.36 39.2632 193.155 38.0349 191.313 38.0349C188.903 38.0349 187.25 40.019 187.25 43.0187C187.25 45.5697 188.596 47.7665 191.265 47.7665C192.777 47.7665 194.194 46.8453 194.761 45.2157C194.903 44.8377 194.974 44.4123 194.974 44.011V41.7198Z" fill="black"/>
<path d="M199.91 31.9407H201.02V48.7113H199.91V31.9407Z" fill="black"/>
<path d="M206.382 34.1377C206.382 34.6573 206.028 35.1061 205.437 35.1061C204.918 35.1061 204.564 34.6573 204.564 34.1377C204.564 33.6178 204.965 33.1456 205.485 33.1456C206.028 33.1456 206.382 33.5944 206.382 34.1377ZM204.918 48.7113V37.3735H206.028V48.7113H204.918Z" fill="black"/>
<path d="M209.854 40.0899C209.854 39.0506 209.807 38.2713 209.76 37.3737H210.799L210.894 39.4285H210.941C211.555 38.153 212.972 37.1139 214.838 37.1139C215.925 37.1139 218.783 37.6572 218.783 41.9087V48.7116H217.673V42.0032C217.673 39.9482 216.869 38.0821 214.531 38.0821C212.925 38.0821 211.579 39.2159 211.13 40.6804C211.035 40.9639 210.964 41.3416 210.964 41.6961V48.7113H209.854L209.854 40.0899Z" fill="black"/>
<path d="M222.681 42.9244C222.681 46.5621 224.665 47.9791 227.003 47.9791C228.656 47.9791 229.507 47.6484 230.145 47.3413L230.428 48.2389C230.003 48.4751 228.845 48.9473 226.862 48.9473C223.602 48.9473 221.57 46.5852 221.57 43.2549C221.57 39.4755 223.744 37.1134 226.672 37.1134C230.381 37.1134 231.089 40.6091 231.089 42.239C231.089 42.546 231.089 42.735 231.042 42.9242H222.681V42.9244ZM229.908 42.0268C229.932 40.444 229.271 38.0349 226.531 38.0349C224.027 38.0349 222.94 40.2789 222.751 42.0268H229.908Z" fill="black"/>
</svg>
